<?xml version="1.0" standalone="no"?>
<!DOCTYPE svg PUBLIC "-//W3C//DTD SVG 20010904//EN"
 "http://www.w3.org/TR/2001/REC-SVG-20010904/DTD/svg10.dtd">
<svg version="1.0" xmlns="http://www.w3.org/2000/svg"
 width="500.000000pt" height="500.000000pt" viewBox="0 0 500.000000 500.000000"
 preserveAspectRatio="xMidYMid meet">

<g transform="translate(0.000000,500.000000) scale(0.100000,-0.100000)"
fill="#000000" stroke="none">
<path d="M2 2503 l3 -548 158 -3 157 -3 0 81 0 80 -80 0 -80 0 0 307 0 307
185 -270 c103 -148 189 -270 193 -272 4 -1 91 119 192 267 l185 270 5 -382 5
-382 75 0 75 0 0 545 0 545 -65 0 -65 0 -197 -290 c-108 -159 -202 -290 -208
-290 -6 0 -100 131 -209 290 l-198 290 -67 3 -66 3 2 -548z"/>
<path d="M1876 3034 c-240 -58 -416 -284 -416 -534 0 -399 419 -668 779 -499
131 61 232 166 288 299 25 60 28 75 28 200 0 125 -3 140 -28 200 -109 259
-382 399 -651 334z m296 -176 c116 -54 205 -169 228 -295 30 -167 -67 -346
-228 -421 -50 -24 -69 -27 -162 -27 -93 0 -112 3 -162 27 -80 37 -152 107
-191 187 -30 61 -32 72 -32 171 0 93 3 112 26 161 45 96 116 163 218 206 48
20 70 23 151 21 78 -3 105 -8 152 -30z"/>
<path d="M2945 3039 c-3 -8 -4 -255 -3 -549 l3 -535 172 1 c200 2 290 18 401
70 173 83 272 255 272 474 0 272 -138 453 -399 522 -100 26 -437 39 -446 17z
m393 -164 c204 -48 302 -185 290 -405 -14 -232 -171 -359 -445 -360 l-83 0 0
390 0 390 88 0 c48 0 115 -7 150 -15z"/>
<path d="M4402 2948 c-256 -663 -373 -981 -365 -989 6 -6 42 -9 82 -7 l72 3
155 403 c84 222 157 410 162 418 6 11 47 -87 135 -318 70 -183 127 -336 127
-340 0 -5 -43 -8 -95 -8 l-96 0 3 -77 3 -78 209 -3 c200 -2 208 -2 203 16 -2
11 -96 258 -207 551 l-203 531 -73 0 -73 0 -39 -102z"/>
</g>
</svg>
